<?xml version="1.0" encoding="iso-8859-1"?>
<!-- Generator: Adobe Illustrator 19.0.0, SVG Export Plug-In . SVG Version: 6.00 Build 0)  -->
<svg version="1.1" id="Layer_1" xmlns="http://www.w3.org/2000/svg" xmlns:xlink="http://www.w3.org/1999/xlink" x="0px" y="0px"
	 viewBox="0 0 512 512" style="enable-background:new 0 0 512 512;" xml:space="preserve">
<path style="fill:#DAE2F2;" d="M432,512H80c-44.183,0-80-35.817-80-80V178c0-44.183,35.817-80,80-80h352c44.183,0,80,35.817,80,80
	v254C512,476.183,476.183,512,432,512z"/>
<path style="fill:#87D92B;" d="M482,173v264c0,7.21-1.7,14.03-4.72,20.07c-4.58,9.18-12.21,16.58-21.56,20.86
	c-5.7,2.61-12.04,4.07-18.72,4.07H75c-24.85,0-45-20.15-45-45V173c0-24.85,20.15-45,45-45h362C461.85,128,482,148.15,482,173z"/>
<path style="fill:#7FCC29;" d="M437,128H256v354h181c6.68,0,13.02-1.46,18.72-4.07c9.35-4.28,16.98-11.68,21.56-20.86
	c3.02-6.04,4.72-12.86,4.72-20.07V173C482,148.15,461.85,128,437,128z"/>
<path style="fill:#FFDD99;" d="M477.28,457.07c-4.58,9.18-12.21,16.58-21.56,20.86L336,358.21l-80,80.01L212.22,482h-42.44
	L256,395.79L314.79,337L256,278.21l-16-16l-85.39,85.4c-2.93,2.93-6.77,4.39-10.61,4.39s-7.68-1.46-10.61-4.39
	c-5.85-5.86-5.85-15.36,0-21.22L256,203.78L331.78,128h42.44L261.21,241L477.28,457.07z"/>
<path style="fill:#E6EEFF;" d="M92.156,35.071C43.613,27.176,0,64.242,0,113v320c0,8.284,6.716,15,15,15s15-6.716,15-15
	c0-27.236,21.762-49,49-49c27.019,0,49,21.981,49,49c0,8.284,6.716,15,15,15s15-6.716,15-15V116.424
	C158,76.15,129.693,41.176,92.156,35.071z"/>
<path style="fill:#FFD580;" d="M477.28,457.07c-4.58,9.18-12.21,16.58-21.56,20.86L336,358.21l-80,80.01v-42.43L314.79,337
	L256,278.21v-74.43L331.78,128h42.44L261.21,241L477.28,457.07z"/>
<path style="fill:#F23051;" d="M401,0c-61.21,0-111,49.79-111,111c0,33.05,14.4,63.84,39.63,85.01l58.01,113.8
	c2.56,5.03,7.72,8.19,13.36,8.19s10.8-3.16,13.36-8.19l58.01-113.8C497.6,174.84,512,144.05,512,111C512,49.79,462.21,0,401,0z
	 M401,158c-25.92,0-47-21.08-47-47s21.08-47,47-47s47,21.08,47,47S426.92,158,401,158z"/>
<path style="fill:#D92C48;" d="M512,111c0,33.05-14.4,63.84-39.63,85.01l-58.01,113.8c-2.56,5.03-7.72,8.19-13.36,8.19V158
	c25.92,0,47-21.08,47-47s-21.08-47-47-47V0C462.21,0,512,49.79,512,111z"/>
<g>
</g>
<g>
</g>
<g>
</g>
<g>
</g>
<g>
</g>
<g>
</g>
<g>
</g>
<g>
</g>
<g>
</g>
<g>
</g>
<g>
</g>
<g>
</g>
<g>
</g>
<g>
</g>
<g>
</g>
</svg>
