<?xml version="1.0" encoding="UTF-8" standalone="no"?>
<svg width="361.244mm" height="56.4444mm"
 viewBox="0 0 1024 160"
 xmlns="http://www.w3.org/2000/svg" xmlns:xlink="http://www.w3.org/1999/xlink"  version="1.2" baseProfile="tiny">
<title>Qt Svg Document</title>
<desc>Generated with Qt</desc>
<defs>
</defs>
<g fill="none" stroke="black" stroke-width="1" fill-rule="evenodd" stroke-linecap="square" stroke-linejoin="bevel" >

<g fill="#ffffff" fill-opacity="1" stroke="none" transform="matrix(1,0,0,1,0,0)"
font-family="Helvetica" font-size="12" font-weight="400" font-style="normal" 
>
<path vector-effect="non-scaling-stroke" fill-rule="evenodd" d="M0,0 L1024,0 L1024,160 L0,160 L0,0"/>
<path vector-effect="non-scaling-stroke" fill-rule="evenodd" d="M0,0 L1024,0 L1024,160 L0,160 L0,0"/>
</g>

<g fill="#29b5ff" fill-opacity="1" stroke="none" transform="matrix(1,0,0,1,0,0)"
font-family="Helvetica" font-size="12" font-weight="400" font-style="normal" 
>
<path vector-effect="non-scaling-stroke" fill-rule="evenodd" d="M0,0 L1024,0 L1024,160 L0,160 L0,0"/>
<path vector-effect="non-scaling-stroke" fill-rule="evenodd" d="M8,8 L1016,8 L1016,128 L8,128 L8,8"/>
<path vector-effect="non-scaling-stroke" fill-rule="evenodd" d="M8,8 L353,8 L353,128 L8,128 L8,8"/>
</g>

<g fill="#ffffff" fill-opacity="1" stroke="#ffffff" stroke-opacity="1" stroke-width="1" stroke-linecap="square" stroke-linejoin="bevel" transform="matrix(1,0,0,1,0,0)"
font-family="Lobster" font-size="48" font-weight="700" font-style="normal" 
>
<text fill="#ffffff" fill-opacity="1" stroke="none" xml:space="preserve" x="8" y="56" font-family="Lobster" font-size="48" font-weight="700" font-style="normal" 
 >Registro de</text>
<text fill="#ffffff" fill-opacity="1" stroke="none" xml:space="preserve" x="8" y="116" font-family="Lobster" font-size="48" font-weight="700" font-style="normal" 
 >Oficios</text>
</g>
</g>
</svg>
